<svg width="28" height="32" viewBox="0 0 32 32" fill="none" xmlns="http://www.w3.org/2000/svg"><defs><linearGradient id="myGradient" gradientTransform="rotate(90)"><stop offset="10%" stop-color="#12A3FA"></stop><stop offset="90%" stop-color="#1666EF"></stop></linearGradient></defs><rect width="32" height="32" rx="7" fill="url(#myGradient)"></rect><path d="M11.2645 22.4417C11.1794 22.5867 11.0576 22.7069 10.9114 22.79C10.7652 22.8731 10.5997 22.9162 10.4316 22.915C10.2602 22.9165 10.0918 22.8703 9.94519 22.7814C9.83607 22.7182 9.74051 22.634 9.66399 22.5337C9.58748 22.4335 9.53152 22.3191 9.49932 22.1971C9.46713 22.0752 9.45933 21.9481 9.47638 21.8231C9.49343 21.6982 9.53498 21.5778 9.59867 21.4689L10.5448 19.896C10.5926 19.8148 10.6608 19.7475 10.7427 19.7008C10.8245 19.6542 10.9171 19.6297 11.0114 19.6299H11.1512C11.8374 19.6299 12.3176 20.0426 12.4575 20.4424L11.2645 22.4417ZM19.2747 19.3477L13.0787 19.3545H8.9607C8.83113 19.3551 8.70281 19.3293 8.5835 19.2788C8.4642 19.2282 8.35641 19.154 8.26666 19.0605C8.17692 18.9671 8.10709 18.8564 8.06141 18.7351C8.01574 18.6139 7.99517 18.4846 8.00095 18.3552C8.02075 17.8354 8.47433 17.4419 8.99102 17.4419H11.9761L15.5149 11.4179L14.3689 9.46566C14.1109 9.02075 14.2254 8.43414 14.6678 8.15445C14.7769 8.0839 14.8991 8.03615 15.0271 8.01405C15.1551 7.99195 15.2862 7.99596 15.4127 8.02584C15.5391 8.05573 15.6581 8.11086 15.7627 8.18794C15.8673 8.26502 15.9551 8.36245 16.0211 8.47436L16.6337 9.52073H16.6405L17.2537 8.47436C17.3197 8.36303 17.4075 8.26612 17.5118 8.18943C17.616 8.11274 17.7347 8.05783 17.8606 8.02798C17.9866 7.99812 18.1172 7.99393 18.2448 8.01566C18.3724 8.03739 18.4943 8.08459 18.6033 8.15445C19.0433 8.43414 19.1565 9.02075 18.8966 9.46752L17.7506 11.4198L16.6368 13.3189L14.2179 17.4437V17.4505H17.7828C18.2295 17.4505 18.7896 17.6906 19.016 18.0767L19.0358 18.117C19.2357 18.4567 19.3489 18.69 19.3489 19.0297C19.3457 19.14 19.3211 19.2486 19.2765 19.3496L19.2747 19.3477ZM24.0858 19.3545H22.4082V19.3613L23.6347 21.4473C23.7666 21.667 23.807 21.9297 23.7471 22.1788C23.6873 22.428 23.532 22.6437 23.3148 22.7795C23.1641 22.8714 22.9912 22.92 22.8148 22.92C22.6471 22.9199 22.4822 22.8765 22.3363 22.7938C22.1903 22.7112 22.0683 22.5922 21.9819 22.4485L20.1695 19.3632L19.0433 17.445L17.5903 14.9611C17.3799 14.6065 17.2655 14.2031 17.2585 13.7908C17.2514 13.3784 17.3519 12.9714 17.5501 12.6097C17.8372 12.1029 18.0569 11.9699 18.0569 11.9699L21.2888 17.4363H24.0678C24.5876 17.4363 25.0338 17.836 25.0579 18.349C25.0629 18.4794 25.0415 18.6095 24.9949 18.7314C24.9484 18.8534 24.8777 18.9646 24.7871 19.0586C24.6964 19.1525 24.5878 19.2271 24.4676 19.278C24.3474 19.3288 24.2181 19.3549 24.0876 19.3545H24.0858Z" fill="white"></path></svg>