<svg width="18" height="18" viewBox="0 0 18 18" fill="none" xmlns="http://www.w3.org/2000/svg" class="sc-1a25c9g-1 cPJheW"><g clip-path="url(#clip0_104_1245)"><path d="M16.3636 17.1818H13.4489L13.6534 14.7273H12.2216L12.017 17.1818H5.98295L5.77841 14.7273H4.34659L4.55114 17.1818H1.63636L0 6.54545L4.09091 0H13.9091L18 6.54545L16.3636 17.1818ZM13.0909 3.27273H10.461L10.6364 4.5H7.36364L7.53898 3.27273H4.90909L3.27273 6.54545L4.09091 13.0909H13.9091L14.7273 6.54545L13.0909 3.27273ZM11.6591 10.9186C11.4332 10.9186 11.25 10.2373 11.25 9.39682C11.25 8.55634 11.4332 7.875 11.6591 7.875C11.885 7.875 12.0682 8.55634 12.0682 9.39682C12.0682 10.2373 11.885 10.9186 11.6591 10.9186ZM6.49432 11.0455C6.2684 11.0455 6.08523 10.3641 6.08523 9.52364C6.08523 8.68316 6.2684 8.00182 6.49432 8.00182C6.72024 8.00182 6.90341 8.68316 6.90341 9.52364C6.90341 10.3641 6.72024 11.0455 6.49432 11.0455Z" fill="#2C3135"></path></g><defs><clipPath id="clip0_104_1245"><rect width="18" height="17.2266" fill="white"></rect></clipPath></defs></svg>