<svg width="28" height="32" viewBox="0 0 32 32" fill="none" xmlns="http://www.w3.org/2000/svg"><rect width="32" height="32" rx="7" fill="#2BC76A"></rect><path d="M9.92871 9.93071V23.2266C9.9288 23.2555 9.9374 23.2837 9.95344 23.3076C9.96948 23.3316 9.99224 23.3503 10.0189 23.3614C10.0455 23.3725 10.0748 23.3755 10.1031 23.37C10.1314 23.3645 10.1575 23.3507 10.1781 23.3305L17.1011 16.579L10.1781 9.82684C10.1575 9.80659 10.1314 9.79285 10.1031 9.78735C10.0748 9.78186 10.0455 9.78484 10.0189 9.79593C9.99224 9.80702 9.96948 9.82573 9.95344 9.84971C9.9374 9.87368 9.9288 9.90186 9.92871 9.93071Z" fill="white"></path><path d="M20.0021 13.8042L11.3216 9.02175L11.3162 9.01871C11.1666 8.93751 11.0245 9.13983 11.147 9.25756L17.9516 15.7641L20.0021 13.8042Z" fill="white"></path><path d="M11.1474 23.8993C11.0242 24.017 11.1663 24.2194 11.3166 24.1382L11.322 24.1351L20.0019 19.3526L17.9513 17.3921L11.1474 23.8993Z" fill="white"></path><path d="M23.5099 15.7325L21.0859 14.3975L18.8066 16.5783L21.0859 18.758L23.5099 17.424C24.1693 17.0597 24.1693 16.0968 23.5099 15.7325Z" fill="white"></path></svg>