<svg width="22" height="22" viewBox="0 0 22 22" fill="none" xmlns="http://www.w3.org/2000/svg" class="sc-1a25c9g-2 kAShCt"><path d="M17.6455 7.76512C17.4258 7.69007 17.2045 7.62017 16.9817 7.55543C17.0186 7.40504 17.0527 7.25379 17.0839 7.10168C17.5867 4.65676 17.258 2.68707 16.1361 2.03867C15.0618 1.41649 13.3001 2.06488 11.5229 3.6152C11.3482 3.76816 11.177 3.92572 11.0095 4.08785C10.8977 3.98014 10.7832 3.87473 10.6657 3.7716C8.80301 2.11387 6.93602 1.41563 5.81539 2.06617C4.74117 2.68965 4.42191 4.54117 4.87438 6.85848C4.91964 7.08764 4.97048 7.31581 5.02691 7.54297C4.76266 7.61816 4.50742 7.69852 4.26336 7.78359C2.08227 8.54629 0.6875 9.74211 0.6875 10.9822C0.6875 12.2635 2.18453 13.5483 4.45887 14.3273C4.64335 14.39 4.82954 14.4483 5.01746 14.5022C4.95645 14.7454 4.90245 14.9913 4.85547 15.24C4.42578 17.5173 4.76094 19.325 5.83301 19.9446C6.94031 20.5844 8.79785 19.927 10.6086 18.3414C10.7518 18.216 10.895 18.0835 11.0382 17.944C11.2193 18.119 11.4055 18.2889 11.5968 18.4536C13.35 19.9652 15.0812 20.5758 16.1515 19.9545C17.258 19.3125 17.6176 17.3704 17.1505 15.0075C17.1147 14.827 17.0735 14.6428 17.0268 14.4549C17.1574 14.4163 17.2853 14.3763 17.4105 14.335C19.7738 13.55 21.3134 12.2807 21.3134 10.9835C21.3125 9.73738 19.873 8.53383 17.6455 7.76512ZM12.1026 4.28121C13.625 2.95305 15.0481 2.42883 15.6969 2.80352C16.3874 3.2027 16.656 4.81231 16.222 6.92336C16.1933 7.06086 16.1624 7.19793 16.1292 7.33457C15.2207 7.12792 14.2994 6.98208 13.3714 6.89801C12.8402 6.13268 12.2577 5.40413 11.6282 4.71734C11.7823 4.56781 11.9402 4.42244 12.1017 4.28121H12.1026ZM6.77746 12.0418C6.96395 12.4027 7.15888 12.7592 7.36227 13.1113C7.56937 13.4705 7.78522 13.8244 8.0098 14.173C7.37132 14.1036 6.73683 14.0014 6.10887 13.8667C6.29105 13.2771 6.51535 12.6648 6.77746 12.0418ZM6.77746 9.96512C6.51965 9.35539 6.30137 8.75555 6.12219 8.17633C6.71086 8.04441 7.3382 7.93656 7.99219 7.85492C7.77305 8.19695 7.56221 8.544 7.35969 8.89605C7.15716 9.24811 6.96266 9.60447 6.77617 9.96512H6.77746ZM7.24582 11.0037C7.51738 10.4373 7.80986 9.8819 8.12324 9.33734C8.43634 8.79307 8.76964 8.26126 9.12313 7.74191C9.73672 7.69551 10.3658 7.67102 11.0013 7.67102C11.6368 7.67102 12.2697 7.69551 12.8829 7.74234C13.2327 8.26055 13.5639 8.7905 13.8768 9.33219C14.1896 9.87388 14.4859 10.4267 14.7658 10.9908C14.4896 11.5591 14.194 12.1168 13.8789 12.664C13.5664 13.2083 13.237 13.7416 12.8906 14.2641C12.2783 14.3071 11.6445 14.3307 11 14.3307C10.3555 14.3307 9.73371 14.3105 9.13258 14.2714C8.77651 13.7504 8.44049 13.2163 8.12453 12.6691C7.80857 12.122 7.51523 11.5668 7.24453 11.0037H7.24582ZM14.6416 13.1053C14.8493 12.7449 15.0487 12.3798 15.2397 12.01C15.5016 12.6039 15.7328 13.2108 15.9324 13.8284C15.297 13.9715 14.6546 14.0812 14.0078 14.1571C14.2261 13.8108 14.4374 13.4602 14.6416 13.1053ZM15.2311 9.96555C15.0409 9.60318 14.8431 9.2451 14.6377 8.89133C14.4372 8.54242 14.2282 8.19781 14.0108 7.8575C14.6687 7.94086 15.2999 8.05172 15.8916 8.18707C15.7013 8.79058 15.4809 9.38415 15.2311 9.96555V9.96555ZM11.0099 5.34856C11.4389 5.81739 11.8441 6.30757 12.2238 6.81723C11.4116 6.77856 10.599 6.77856 9.7857 6.81723C10.1866 6.28699 10.597 5.795 11.0099 5.34856ZM6.25883 2.82973C6.94891 2.42926 8.47473 3.0016 10.083 4.43117C10.1857 4.5227 10.2893 4.61852 10.3924 4.71777C9.75965 5.40447 9.17313 6.13238 8.63672 6.89672C7.71085 6.98014 6.79138 7.12367 5.88414 7.32641C5.83172 7.11557 5.78445 6.90331 5.74234 6.68961C5.35348 4.70316 5.61086 3.2057 6.25883 2.82973ZM5.25293 13.6514C5.08105 13.6024 4.91133 13.5493 4.74375 13.492C3.73828 13.1482 2.9077 12.6996 2.3375 12.2111C1.82703 11.7732 1.56836 11.3363 1.56836 10.9822C1.56836 10.2298 2.68812 9.26988 4.55555 8.61891C4.79016 8.53727 5.02677 8.46264 5.26539 8.39504C5.54273 9.28634 5.87862 10.1584 6.27086 11.0054C5.87394 11.8641 5.5339 12.7481 5.25293 13.6514V13.6514ZM10.028 17.6763C9.22754 18.3775 8.42574 18.8747 7.71891 19.1252C7.08383 19.3499 6.57809 19.3564 6.27258 19.1798C5.62203 18.8038 5.35133 17.3519 5.72043 15.4045C5.76426 15.1754 5.81439 14.9462 5.87082 14.717C6.78715 14.9144 7.71584 15.0492 8.65047 15.1205C9.19211 15.8888 9.78348 16.6209 10.4208 17.3119C10.2927 17.4378 10.1617 17.559 10.028 17.6763ZM11.0344 16.6786C10.6167 16.227 10.1999 15.7272 9.79344 15.1901C10.1885 15.2056 10.5907 15.2133 11 15.2133C11.4202 15.2133 11.8362 15.2043 12.2461 15.1858C11.8678 15.7037 11.4634 16.2019 11.0344 16.6786V16.6786ZM16.3848 17.907C16.262 18.5705 16.0149 19.013 15.7094 19.1901C15.0593 19.5673 13.6692 19.0771 12.1705 17.7841C11.9986 17.6363 11.8267 17.4778 11.6518 17.3115C12.2767 16.6177 12.8542 15.8827 13.3805 15.1115C14.3203 15.0319 15.2535 14.8876 16.1734 14.6797C16.2155 14.8498 16.2528 15.0165 16.2852 15.1798C16.4918 16.2239 16.5215 17.1684 16.3848 17.907V17.907ZM17.1325 13.4967C17.0199 13.5341 16.9039 13.5702 16.7862 13.6054C16.4977 12.7099 16.1487 11.8351 15.7416 10.9869C16.1334 10.1501 16.4688 9.28789 16.7454 8.40621C16.9563 8.46766 17.1613 8.53211 17.3585 8.60043C19.2672 9.25871 20.4316 10.2332 20.4316 10.9822C20.4316 11.7814 19.1739 12.8187 17.1325 13.4967V13.4967Z" fill="#00DCFE"></path><path d="M10.9991 12.8289C11.3648 12.83 11.7226 12.7227 12.0273 12.5204C12.3319 12.3181 12.5696 12.03 12.7104 11.6924C12.8512 11.3549 12.8886 10.9832 12.818 10.6244C12.7474 10.2656 12.5719 9.93585 12.3137 9.67685C12.0556 9.41784 11.7264 9.24127 11.3678 9.16949C11.0092 9.09771 10.6374 9.13395 10.2995 9.27361C9.96149 9.41328 9.67257 9.65009 9.46928 9.95407C9.26599 10.258 9.15748 10.6155 9.15747 10.9812C9.15697 11.2235 9.20421 11.4635 9.29651 11.6875C9.38881 11.9115 9.52435 12.1151 9.69538 12.2867C9.86641 12.4583 10.0696 12.5945 10.2933 12.6875C10.517 12.7805 10.7568 12.8286 10.9991 12.8289Z" fill="#00DCFE"></path></svg>